<svg width="20" height="20" viewBox="0 0 20 20" fill="none" xmlns="http://www.w3.org/2000/svg">
<g id="icon/layout-list">
<path id="Vector" d="M16.6667 5.83333H3.33333C3.11232 5.83333 2.90036 5.74554 2.74408 5.58926C2.5878 5.43298 2.5 5.22101 2.5 5V3.33333C2.5 3.11232 2.5878 2.90036 2.74408 2.74408C2.90036 2.5878 3.11232 2.5 3.33333 2.5H16.6667C16.8877 2.5 17.0996 2.5878 17.2559 2.74408C17.4122 2.90036 17.5 3.11232 17.5 3.33333V5C17.5 5.22101 17.4122 5.43298 17.2559 5.58926C17.0996 5.74554 16.8877 5.83333 16.6667 5.83333Z" stroke="white" stroke-width="1.5" stroke-linecap="round" stroke-linejoin="round"/>
<path id="Vector_2" d="M16.6667 11.6663H3.33333C3.11232 11.6663 2.90036 11.5785 2.74408 11.4223C2.5878 11.266 2.5 11.054 2.5 10.833V9.16634C2.5 8.94533 2.5878 8.73337 2.74408 8.57709C2.90036 8.42081 3.11232 8.33301 3.33333 8.33301H16.6667C16.8877 8.33301 17.0996 8.42081 17.2559 8.57709C17.4122 8.73337 17.5 8.94533 17.5 9.16634V10.833C17.5 11.054 17.4122 11.266 17.2559 11.4223C17.0996 11.5785 16.8877 11.6663 16.6667 11.6663Z" stroke="white" stroke-width="1.5" stroke-linecap="round" stroke-linejoin="round"/>
<path id="Vector_3" d="M16.6667 17.5003H3.33333C3.11232 17.5003 2.90036 17.4125 2.74408 17.2562C2.5878 17.1 2.5 16.888 2.5 16.667V15.0003C2.5 14.7793 2.5878 14.5673 2.74408 14.4111C2.90036 14.2548 3.11232 14.167 3.33333 14.167H16.6667C16.8877 14.167 17.0996 14.2548 17.2559 14.4111C17.4122 14.5673 17.5 14.7793 17.5 15.0003V16.667C17.5 16.888 17.4122 17.1 17.2559 17.2562C17.0996 17.4125 16.8877 17.5003 16.6667 17.5003Z" stroke="white" stroke-width="1.5" stroke-linecap="round" stroke-linejoin="round"/>
</g>
</svg>
