<svg width="20" height="20" viewBox="0 0 20 20" fill="none" xmlns="http://www.w3.org/2000/svg">
<g id="Group">
<g id="Group_2">
<path id="Vector" fill-rule="evenodd" clip-rule="evenodd" d="M10.3543 2.45692L12.6226 1.72275C12.8824 1.63874 13.1636 1.64996 13.4159 1.7544C13.6681 1.85885 13.8749 2.04969 13.9993 2.29275L15.0835 4.41609C15.1935 4.63109 15.3685 4.80692 15.5843 4.91692L17.681 5.98775C17.9317 6.11576 18.1286 6.32896 18.2362 6.58906C18.3439 6.84917 18.3553 7.13915 18.2685 7.40692L17.5435 9.64692C17.4693 9.87692 17.4693 10.1244 17.5435 10.3544L18.2776 12.6228C18.3616 12.8825 18.3504 13.1637 18.246 13.416C18.1415 13.6682 17.9507 13.8751 17.7076 13.9994L15.5843 15.0836C15.3688 15.1937 15.1935 15.3689 15.0835 15.5844L13.9985 17.7078C13.8744 17.951 13.6676 18.1421 13.4152 18.2466C13.1629 18.3511 12.8815 18.3621 12.6218 18.2778L10.3535 17.5436C10.1235 17.4694 9.87595 17.4694 9.64595 17.5436L7.37762 18.2778C7.11785 18.3618 6.83665 18.3505 6.58439 18.2461C6.33213 18.1417 6.12531 17.9508 6.00095 17.7078L4.91679 15.5844C4.80669 15.3689 4.63143 15.1937 4.41595 15.0836L2.29262 13.9986C2.04933 13.8745 1.85827 13.6677 1.75379 13.4154C1.64931 13.163 1.63826 12.8817 1.72262 12.6219L2.45679 10.3536C2.53096 10.1236 2.53096 9.87609 2.45679 9.64609L1.72262 7.37859C1.63862 7.1186 1.64994 6.83719 1.75453 6.58478C1.85913 6.33238 2.05018 6.12545 2.29345 6.00109L4.41595 4.91692C4.63179 4.80692 4.80679 4.63192 4.91679 4.41609L6.00179 2.29275C6.12627 2.04981 6.33311 1.85907 6.58532 1.75464C6.83754 1.65022 7.11867 1.63891 7.37845 1.72275L9.64679 2.45692C9.87595 2.53192 10.1243 2.53192 10.3543 2.45692V2.45692Z" stroke="white" stroke-width="1.5" stroke-linecap="round" stroke-linejoin="round"/>
<path id="Vector_2" d="M7.5 12.5L12.5 7.5" stroke="white" stroke-width="1.5" stroke-linecap="round" stroke-linejoin="round"/>
<path id="Vector_3" d="M7.915 7.5C7.83266 7.50033 7.75227 7.52505 7.68397 7.57103C7.61567 7.61702 7.56252 7.68221 7.53124 7.75837C7.49996 7.83453 7.49195 7.91826 7.50821 7.99897C7.52448 8.07969 7.56429 8.15378 7.62263 8.21188C7.68097 8.26999 7.75521 8.30951 7.83599 8.32545C7.91677 8.34139 8.00046 8.33304 8.0765 8.30146C8.15254 8.26987 8.21752 8.21647 8.26323 8.14798C8.30894 8.0795 8.33333 7.99901 8.33333 7.91667C8.33333 7.86181 8.3225 7.80749 8.30146 7.75683C8.28041 7.70617 8.24957 7.66016 8.2107 7.62145C8.17184 7.58274 8.12571 7.55208 8.07496 7.53124C8.02422 7.5104 7.96986 7.49978 7.915 7.5Z" stroke="white" stroke-width="1.5" stroke-linecap="round" stroke-linejoin="round"/>
<path id="Vector_4" d="M12.0817 11.667C11.9994 11.6673 11.919 11.692 11.8507 11.738C11.7824 11.784 11.7293 11.8492 11.698 11.9254C11.6667 12.0015 11.6587 12.0853 11.675 12.166C11.6912 12.2467 11.731 12.3208 11.7894 12.3789C11.8477 12.437 11.922 12.4765 12.0027 12.4924C12.0835 12.5084 12.1672 12.5 12.2432 12.4685C12.3193 12.4369 12.3843 12.3835 12.43 12.315C12.4757 12.2465 12.5001 12.166 12.5001 12.0837C12.5001 12.0288 12.4892 11.9745 12.4682 11.9238C12.4472 11.8732 12.4163 11.8272 12.3775 11.7884C12.3386 11.7497 12.2925 11.7191 12.2417 11.6982C12.191 11.6774 12.1366 11.6668 12.0817 11.667Z" stroke="white" stroke-width="1.5" stroke-linecap="round" stroke-linejoin="round"/>
</g>
</g>
</svg>
