<svg width="20" height="20" viewBox="0 0 20 20" fill="none" xmlns="http://www.w3.org/2000/svg">
<g id="Group">
<path id="Vector" d="M10 11.25C10.6904 11.25 11.25 10.6904 11.25 10C11.25 9.30964 10.6904 8.75 10 8.75C9.30964 8.75 8.75 9.30964 8.75 10C8.75 10.6904 9.30964 11.25 10 11.25Z" stroke="white" stroke-width="1.5" stroke-linecap="round" stroke-linejoin="round"/>
<path id="Vector_2" d="M8.2577 5.83301H7.08325C6.75173 5.83301 6.43379 5.9647 6.19937 6.19912C5.96495 6.43354 5.83325 6.75149 5.83325 7.08301V12.9163C5.83325 13.2479 5.96495 13.5658 6.19937 13.8002C6.43379 14.0346 6.75173 14.1663 7.08325 14.1663H12.9166C13.2481 14.1663 13.566 14.0346 13.8005 13.8002C14.0349 13.5658 14.1666 13.2479 14.1666 12.9163V7.08301C14.1666 6.75149 14.0349 6.43354 13.8005 6.19912C13.566 5.9647 13.2481 5.83301 12.9166 5.83301H10.8333C10.6122 5.83301 10.4003 5.92081 10.244 6.07709C10.0877 6.23337 9.99992 6.44533 9.99992 6.66634V8.74967" stroke="white" stroke-width="1.5" stroke-linecap="round" stroke-linejoin="round"/>
<path id="Vector_3" d="M13.3333 2.5H6.66667C4.36548 2.5 2.5 4.36548 2.5 6.66667V13.3333C2.5 15.6345 4.36548 17.5 6.66667 17.5H13.3333C15.6345 17.5 17.5 15.6345 17.5 13.3333V6.66667C17.5 4.36548 15.6345 2.5 13.3333 2.5Z" stroke="white" stroke-width="1.5" stroke-linecap="round" stroke-linejoin="round"/>
</g>
</svg>
