<svg width="16" height="18" viewBox="0 0 16 18" fill="none" xmlns="http://www.w3.org/2000/svg">
<g id="Group">
<path id="main" d="M9.59165 7.40831C10.0138 7.83045 10.2509 8.40299 10.2509 8.99998C10.2509 9.59697 10.0138 10.1695 9.59165 10.5916C9.16951 11.0138 8.59697 11.2509 7.99998 11.2509C7.40299 11.2509 6.83045 11.0138 6.40831 10.5916C5.98618 10.1695 5.74902 9.59697 5.74902 8.99998C5.74902 8.70438 5.80725 8.41167 5.92037 8.13858C6.03349 7.86548 6.19929 7.61733 6.40831 7.40831C6.61733 7.19929 6.86548 7.03349 7.13858 6.92037C7.41167 6.80725 7.70438 6.74902 7.99998 6.74902C8.59697 6.74902 9.16951 6.98618 9.59165 7.40831" stroke="white" stroke-width="1.5" stroke-linecap="round" stroke-linejoin="round"/>
<path id="Vector" d="M2.3749 9C2.3749 9.2475 2.3974 9.495 2.4274 9.735L1.10407 10.77C0.962136 10.8812 0.865101 11.0398 0.830806 11.2168C0.796511 11.3938 0.827261 11.5772 0.917402 11.7333L2.09407 13.7692C2.18418 13.9251 2.32749 14.0433 2.4977 14.102C2.66792 14.1608 2.85362 14.1562 3.02074 14.0892L4.20574 13.6133C4.32109 13.5687 4.4456 13.5528 4.56846 13.5672C4.69132 13.5816 4.80881 13.6257 4.91074 13.6958C5.09407 13.8175 5.28407 13.9292 5.48074 14.0292C5.70574 14.1433 5.86907 14.3475 5.9049 14.5975L6.08574 15.8583C6.13824 16.2267 6.45407 16.5 6.82574 16.5H9.17324C9.35315 16.5 9.52704 16.4351 9.66297 16.3173C9.7989 16.1994 9.88776 16.0364 9.91323 15.8583L10.0941 14.5983C10.1138 14.476 10.1629 14.3603 10.2372 14.2611C10.3115 14.162 10.4088 14.0824 10.5207 14.0292C10.7166 13.9308 10.9057 13.82 11.0882 13.6992C11.1904 13.6283 11.3084 13.5835 11.4318 13.5687C11.5553 13.5539 11.6805 13.5695 11.7966 13.6142L12.9791 14.0892C13.1462 14.1561 13.3318 14.1605 13.502 14.1018C13.6722 14.043 13.8155 13.9249 13.9057 13.7692L15.0824 11.7333C15.1725 11.5772 15.2033 11.3938 15.169 11.2168C15.1347 11.0398 15.0377 10.8812 14.8957 10.77L13.5724 9.735C13.6024 9.495 13.6249 9.2475 13.6249 9C13.6249 8.7525 13.6024 8.505 13.5724 8.265L14.8957 7.23C15.0377 7.11884 15.1347 6.96019 15.169 6.7832C15.2033 6.60621 15.1725 6.42279 15.0824 6.26667L13.9057 4.23083C13.8156 4.07492 13.6723 3.95674 13.5021 3.89796C13.3319 3.83918 13.1462 3.84375 12.9791 3.91083L11.7966 4.38583C11.6805 4.43028 11.5553 4.44577 11.4319 4.43096C11.3085 4.41615 11.1905 4.37148 11.0882 4.30083C10.9058 4.17963 10.7163 4.06943 10.5207 3.97083C10.4088 3.91761 10.3115 3.838 10.2372 3.73886C10.1629 3.63971 10.1138 3.524 10.0941 3.40167L9.91407 2.14167C9.8886 1.96356 9.79974 1.80062 9.6638 1.68275C9.52787 1.56488 9.35399 1.49999 9.17407 1.5H6.82657C6.64665 1.49999 6.47277 1.56488 6.33683 1.68275C6.2009 1.80062 6.11204 1.96356 6.08657 2.14167L5.9049 3.40333C5.88519 3.52522 5.83633 3.64054 5.76248 3.73949C5.68863 3.83844 5.59198 3.91809 5.48074 3.97167C5.28407 4.07167 5.09407 4.18417 4.91074 4.305C4.80849 4.37476 4.69084 4.41863 4.56789 4.43286C4.44494 4.44709 4.32037 4.43123 4.2049 4.38667L3.02074 3.91083C2.85362 3.84375 2.66792 3.83918 2.4977 3.89796C2.32749 3.95674 2.18418 4.07492 2.09407 4.23083L0.917402 6.26667C0.827261 6.42279 0.796511 6.60621 0.830806 6.7832C0.865101 6.96019 0.962136 7.11884 1.10407 7.23L2.4274 8.265C2.39473 8.50868 2.3772 8.75415 2.3749 9V9Z" stroke="white" stroke-width="1.5" stroke-linecap="round" stroke-linejoin="round"/>
</g>
</svg>
