<svg width="126" height="111" viewBox="0 0 126 111" fill="none" xmlns="http://www.w3.org/2000/svg">
<g opacity="0.1">
<path d="M124.094 29.1025C124.085 29.0493 124.087 28.9932 124.073 28.9411C124.035 28.7975 123.979 28.6596 123.905 28.5306C123.88 28.4863 123.843 28.4508 123.814 28.4095C123.761 28.3264 123.701 28.248 123.634 28.1752C123.594 28.1339 123.543 28.1053 123.499 28.0679C123.433 28.0073 123.362 27.952 123.288 27.9025L123.275 27.8976L123.264 27.8898L108.872 19.6436C108.611 19.4944 108.316 19.4158 108.015 19.4158C107.715 19.4158 107.42 19.4944 107.159 19.6436L92.7585 27.8888L92.7476 27.8966L92.7348 27.9016C92.66 27.9513 92.5892 28.007 92.5232 28.0679C92.4789 28.1043 92.4248 28.1339 92.3883 28.1742C92.3212 28.2479 92.2606 28.3273 92.2072 28.4115C92.1787 28.4528 92.1423 28.4873 92.1176 28.5306C92.0441 28.6596 91.9875 28.7976 91.9493 28.9411C91.9355 28.9913 91.9375 29.0454 91.9286 29.0966C91.908 29.1908 91.8955 29.2867 91.8912 29.383V32.8923L79.0835 24.8717C79.1022 24.7854 79.114 24.6979 79.119 24.6098V10.2123C79.1144 10.1176 79.1019 10.0234 79.0816 9.93081C79.0727 9.87766 79.0747 9.82155 79.0609 9.76937C79.0226 9.6262 78.9661 9.48856 78.8926 9.35987C78.8581 9.30872 78.821 9.25943 78.7813 9.21222C78.7339 9.13903 78.6809 9.06959 78.6228 9.00451C78.5709 8.95868 78.5164 8.91595 78.4594 8.87655C78.4012 8.82408 78.3393 8.77573 78.2744 8.73184H78.2645L78.2576 8.71708L63.8562 0.471952C63.5955 0.322673 63.3003 0.244141 62.9998 0.244141C62.6994 0.244141 62.4042 0.322673 62.1434 0.471952L47.742 8.71708L47.7302 8.72594H47.7204C47.655 8.7701 47.5929 8.81878 47.5343 8.87162C47.4777 8.91073 47.4235 8.95313 47.3719 8.99861C47.313 9.06457 47.2594 9.135 47.2114 9.20926C47.1725 9.25558 47.1361 9.30388 47.1022 9.35397C47.0286 9.48296 46.972 9.62094 46.9338 9.76445C46.9201 9.81466 46.922 9.8688 46.9132 9.91998C46.8926 10.0142 46.88 10.1101 46.8758 10.2064V24.6098C46.8807 24.6982 46.8925 24.7861 46.9112 24.8726L34.1065 32.8923V29.384C34.1019 29.2893 34.0894 29.1951 34.069 29.1025C34.0602 29.0493 34.0622 28.9932 34.0484 28.9411C34.0102 28.7975 33.9536 28.6596 33.88 28.5306C33.8554 28.4863 33.818 28.4508 33.7885 28.4095C33.7356 28.3264 33.6757 28.248 33.6093 28.1752C33.569 28.1339 33.5178 28.1053 33.4735 28.0679C33.4078 28.0073 33.3373 27.952 33.2628 27.9025L33.25 27.8976L33.2392 27.8898L18.8447 19.6436C18.584 19.4944 18.2887 19.4158 17.9883 19.4158C17.6879 19.4158 17.3926 19.4944 17.1319 19.6436L2.73442 27.8888L2.72359 27.8966L2.7108 27.9016C2.63596 27.9513 2.56519 28.007 2.49916 28.0679C2.45486 28.1043 2.40072 28.1339 2.3643 28.1742C2.29712 28.2479 2.23651 28.3273 2.18317 28.4115C2.15462 28.4528 2.1182 28.4873 2.09359 28.5306C2.02006 28.6596 1.96348 28.7976 1.92527 28.9411C1.91148 28.9913 1.91345 29.0454 1.90459 29.0966C1.88398 29.1908 1.87147 29.2867 1.86719 29.383V43.7805C1.86715 44.0898 1.95039 44.3935 2.10819 44.6595C2.26598 44.9256 2.4925 45.1442 2.76395 45.2925L16.2647 52.6645V72.3894L2.73442 80.1384L2.72359 80.1463L2.7108 80.1512C2.63596 80.201 2.56519 80.2566 2.49916 80.3176C2.45486 80.354 2.40072 80.3835 2.3643 80.4239C2.29712 80.4975 2.23651 80.5769 2.18317 80.6611C2.15462 80.7025 2.1182 80.7369 2.09359 80.7802C2.02006 80.9092 1.96348 81.0472 1.92527 81.1907C1.91148 81.2409 1.91345 81.2951 1.90459 81.3462C1.88398 81.4405 1.87147 81.5363 1.86719 81.6327V96.0302C1.86734 96.3397 1.95088 96.6434 2.10903 96.9095C2.26718 97.1756 2.4941 97.3941 2.76592 97.5422L17.1624 105.4C17.2433 105.44 17.3273 105.473 17.4134 105.499C17.4597 105.516 17.503 105.54 17.5503 105.552C17.8367 105.63 18.1389 105.63 18.4254 105.552C18.4726 105.539 18.5159 105.515 18.5622 105.499C18.6483 105.473 18.7323 105.44 18.8132 105.4L31.0372 98.7273L46.8856 109.279V116.419C46.8856 116.728 46.9688 117.031 47.1266 117.298C47.2844 117.564 47.5109 117.782 47.7824 117.931L62.1789 125.789C62.2598 125.828 62.3437 125.861 62.4299 125.887C62.4761 125.904 62.5195 125.929 62.5667 125.94C62.8532 126.018 63.1553 126.018 63.4418 125.94C63.4891 125.928 63.5324 125.903 63.5786 125.887C63.6648 125.861 63.7487 125.828 63.8297 125.789L78.2222 117.929C78.4937 117.78 78.7202 117.562 78.878 117.296C79.0358 117.03 79.119 116.726 79.119 116.417V109.277L94.9674 98.7254L107.191 105.398C107.272 105.438 107.356 105.471 107.442 105.497C107.489 105.514 107.532 105.538 107.579 105.55C107.866 105.628 108.168 105.628 108.454 105.55C108.502 105.537 108.545 105.513 108.591 105.497C108.677 105.471 108.761 105.438 108.842 105.398L123.234 97.5422C123.505 97.3939 123.732 97.1752 123.89 96.9092C124.047 96.6431 124.131 96.3395 124.13 96.0302V81.6337C124.126 81.5389 124.113 81.4448 124.093 81.3521C124.084 81.299 124.086 81.2429 124.072 81.1907C124.034 81.0472 123.978 80.9092 123.904 80.7802C123.879 80.7359 123.842 80.7005 123.813 80.6591C123.76 80.576 123.7 80.4976 123.633 80.4249C123.593 80.3835 123.542 80.355 123.498 80.3176C123.432 80.257 123.361 80.2017 123.287 80.1522L123.274 80.1473L123.263 80.1394L109.733 72.3904V52.6645L123.233 45.2955C123.504 45.1472 123.731 44.9285 123.889 44.6625C124.046 44.3964 124.13 44.0928 124.13 43.7835V29.384C124.126 29.2894 124.114 29.1952 124.094 29.1025ZM73.4263 102.227L62.9998 107.918L52.5733 102.227L52.1323 101.986L62.9998 95.7624L73.8673 101.982L73.4263 102.227ZM30.6611 42.7587L19.71 48.7359V38.2651L30.6611 32.2879V42.7587ZM17.9873 75.373L28.8548 81.5963L28.4138 81.8374L17.9873 87.5291L7.56081 81.8374L7.11981 81.5963L17.9873 75.373ZM32.2391 79.5645L19.71 72.3884V52.6645L31.1228 46.4344L46.8807 56.6876V69.2561L32.2391 79.5645ZM50.326 23.587V13.1163L61.2772 19.0973V29.5652L50.326 23.587ZM75.6737 23.587L64.7225 29.5652V19.0973L75.6737 13.1182V23.587ZM62.9998 49.4928L73.8673 55.7161L73.4263 55.9572L62.9998 61.6489L52.5733 55.9572L52.1323 55.7161L62.9998 49.4928ZM50.326 58.6564L61.2772 64.6345V75.1083L50.326 69.1282V58.6564ZM64.7225 64.6345L75.6737 58.6564V69.1282L64.7225 75.1083V64.6345ZM79.119 56.6876L94.8768 46.4314L106.29 52.6645V72.3894L93.7606 79.5655L79.119 69.2561V56.6876ZM106.288 38.2651V48.7359L95.3385 42.7587V32.2879L106.288 38.2651ZM95.3385 95.0084V84.5366L106.29 90.5147V100.986L95.3385 95.0084ZM118.439 81.8374L108.012 87.5291L97.5849 81.8374L97.1439 81.5963L108.011 75.373L118.879 81.5963L118.439 81.8374ZM108.012 23.1234L118.88 29.3466L118.439 29.5878L108.012 35.2795L97.5849 29.5878L97.1439 29.3466L108.012 23.1234ZM91.9532 44.2225L77.3392 53.7345L64.7225 46.5092V33.4908L76.279 27.181L91.8922 36.9578V43.7795C91.8932 43.9292 91.9137 44.0781 91.9532 44.2225ZM62.9998 3.9527L73.8663 10.1769L63.4763 15.8489L62.9998 16.1088L62.5234 15.8489L52.1333 10.1759L62.9998 3.9527ZM49.7206 27.184L61.2772 33.4938V46.5092L48.6604 53.7345L34.0464 44.2225C34.0856 44.0781 34.1058 43.9292 34.1065 43.7795V36.9578L49.7206 27.184ZM17.9873 23.1234L28.8548 29.3466L28.4138 29.5878L17.9873 35.2795L7.56081 29.5878L7.11981 29.3466L17.9873 23.1234ZM5.31545 32.2879L16.2666 38.266V48.7359L5.31545 42.7587V32.2879ZM5.31545 84.5376L16.2666 90.5157V100.986L5.31545 95.0084V84.5376ZM19.7119 90.5157L30.6631 84.5376V95.0084L19.7119 100.986V90.5157ZM34.011 96.5676C34.0726 96.3946 34.1058 96.2128 34.1094 96.0292V82.4645L48.7185 72.1758L61.2772 79.031V92.7788L47.742 100.528L47.7312 100.536L47.7184 100.541C47.6436 100.59 47.5728 100.646 47.5068 100.707C47.4625 100.743 47.4083 100.773 47.3719 100.813C47.3047 100.887 47.2441 100.966 47.1908 101.05C47.1622 101.092 47.1258 101.126 47.1012 101.17C47.0276 101.299 46.9711 101.437 46.9329 101.58C46.9191 101.63 46.921 101.684 46.9122 101.736C46.8916 101.83 46.8791 101.926 46.8748 102.022V105.139L34.011 96.5676ZM50.326 108.348V104.925L61.2772 110.903V121.374L50.326 115.397V108.348ZM64.7225 121.374V110.904L75.6737 104.926V115.398L64.7225 121.374ZM79.119 102.022C79.1144 101.927 79.1019 101.833 79.0816 101.741C79.0727 101.687 79.0747 101.631 79.0609 101.579C79.0227 101.436 78.9661 101.298 78.8926 101.169C78.868 101.124 78.8305 101.089 78.801 101.048C78.7482 100.964 78.6882 100.886 78.6219 100.813C78.5815 100.772 78.5303 100.743 78.486 100.706C78.4203 100.645 78.3498 100.59 78.2754 100.541L78.2626 100.536L78.2517 100.528L64.7225 92.7788V79.031L77.2811 72.1758L91.8932 82.4645V96.0302C91.8968 96.2138 91.9301 96.3956 91.9916 96.5686L79.1219 105.14L79.119 102.022ZM109.733 100.985V90.5147L120.684 84.5366V95.0084L109.733 100.985ZM109.733 48.7349V38.2651L120.684 32.2879V42.7587L109.733 48.7349Z" fill="white"/>
</g>
</svg>
