<svg width="103" height="103" viewBox="0 0 103 103" fill="none" xmlns="http://www.w3.org/2000/svg">
<g opacity="0.1" clip-path="url(#clip0_9_102952)">
<path d="M40.6388 72.1802C40.2498 72.1802 39.8579 72.0464 39.5381 71.7741L28.5343 62.4044C28.1548 62.0808 27.9365 61.6082 27.9365 61.1091C27.9365 60.6109 28.1557 60.1384 28.5343 59.8148L39.5381 50.4451C40.2526 49.8359 41.3258 49.9222 41.935 50.6368C42.5433 51.3523 42.4579 52.4255 41.7424 53.0338L32.2598 61.1091L41.7424 69.1844C42.4579 69.7937 42.5433 70.8669 41.935 71.5814C41.5982 71.9771 41.1199 72.1802 40.6388 72.1802Z" fill="white"/>
<path d="M62.3615 72.1802C61.8804 72.1802 61.4021 71.9771 61.0662 71.5814C60.457 70.8669 60.5433 69.7937 61.2579 69.1844L70.7405 61.1091L61.2579 53.0338C60.5433 52.4255 60.457 51.3523 61.0662 50.6368C61.6744 49.9222 62.7486 49.8359 63.4622 50.4451L74.4659 59.8148C74.8455 60.1384 75.0638 60.6109 75.0638 61.1091C75.0638 61.6082 74.8455 62.0808 74.4659 62.4044L63.4622 71.7741C63.1424 72.0464 62.7505 72.1802 62.3615 72.1802Z" fill="white"/>
<path d="M47.6045 79.2083C47.4878 79.2083 47.3701 79.1959 47.2515 79.1712C46.333 78.9777 45.7446 78.0752 45.9382 77.1567L52.7961 44.5963C52.9897 43.6777 53.8911 43.0894 54.8107 43.2829C55.7292 43.4765 56.3175 44.378 56.124 45.2975L49.2661 77.8579C49.0972 78.6588 48.3912 79.2083 47.6045 79.2083Z" fill="white"/>
<path d="M91.5826 96.9469H11.4175C5.12229 96.9469 0 91.8256 0 85.5295V17.4897C0 11.1946 5.12229 6.07227 11.4175 6.07227H91.5826C97.8777 6.07227 103 11.1946 103 17.4897V85.5295C103 91.8256 97.8777 96.9469 91.5826 96.9469ZM11.4175 9.47321C6.99737 9.47321 3.40094 13.0696 3.40094 17.4897V85.5295C3.40094 89.9495 6.99737 93.546 11.4175 93.546H91.5826C96.0027 93.546 99.5991 89.9495 99.5991 85.5295V17.4897C99.5991 13.0696 96.0027 9.47321 91.5826 9.47321H11.4175Z" fill="white"/>
<path d="M101.3 33.3033H1.70047C0.761037 33.3033 0 32.5423 0 31.6028C0 30.6643 0.761037 29.9023 1.70047 29.9023H101.3C102.239 29.9023 103 30.6643 103 31.6028C103 32.5423 102.239 33.3033 101.3 33.3033Z" fill="white"/>
<path d="M29.0542 25.165C26.0879 25.165 23.6729 22.75 23.6729 19.7837C23.6729 16.8164 26.0879 14.4023 29.0542 14.4023C32.0215 14.4023 34.4355 16.8164 34.4355 19.7837C34.4355 22.75 32.0215 25.165 29.0542 25.165ZM29.0542 17.8033C27.9629 17.8033 27.0738 18.6915 27.0738 19.7837C27.0738 20.8759 27.9629 21.7641 29.0542 21.7641C30.1464 21.7641 31.0346 20.8759 31.0346 19.7837C31.0346 18.6915 30.1464 17.8033 29.0542 17.8033Z" fill="white"/>
<path d="M12.52 25.1123C9.55273 25.1123 7.13867 22.6982 7.13867 19.731C7.13867 16.7637 9.55273 14.3496 12.52 14.3496C15.4873 14.3496 17.9014 16.7637 17.9014 19.731C17.9014 22.6982 15.4873 25.1123 12.52 25.1123ZM12.52 17.7506C11.4288 17.7506 10.5396 18.6397 10.5396 19.731C10.5396 20.8232 11.4288 21.7114 12.52 21.7114C13.6122 21.7114 14.5004 20.8232 14.5004 19.731C14.5004 18.6397 13.6122 17.7506 12.52 17.7506Z" fill="white"/>
<path d="M45.5882 25.2168C42.6218 25.2168 40.2078 22.8028 40.2078 19.8355C40.2078 16.8691 42.6218 14.4551 45.5882 14.4551C48.5554 14.4551 50.9695 16.8691 50.9695 19.8355C50.9695 22.8028 48.5554 25.2168 45.5882 25.2168ZM45.5882 17.8551C44.4969 17.8551 43.6087 18.7433 43.6087 19.8355C43.6087 20.9277 44.4969 21.8159 45.5882 21.8159C46.6804 21.8159 47.5686 20.9277 47.5686 19.8355C47.5686 18.7433 46.6804 17.8551 45.5882 17.8551Z" fill="white"/>
</g>
<defs>
<clipPath id="clip0_9_102952">
<rect width="103" height="103" fill="white"/>
</clipPath>
</defs>
</svg>
