<svg width="111" height="108" viewBox="0 0 111 108" fill="none" xmlns="http://www.w3.org/2000/svg">
<path opacity="0.1" d="M75.6931 3V25.125C75.6931 29.1981 79.3092 32.5 83.7698 32.5H108M31.2711 32.5H47.4245M31.2711 54.625H79.7315M31.2711 76.75H79.7315M95.8849 14.0625C92.2902 11.1257 88.5601 7.64243 86.2053 5.38015C84.6383 3.87477 82.4733 3 80.1988 3H19.1541C10.2328 3 3.00068 9.60376 3.00062 17.7499L3 106.25C2.99994 114.396 10.2321 121 19.1534 121L91.8443 121C100.765 121 107.998 114.396 107.998 106.25L108 28.0617C108 26.1759 107.212 24.3631 105.779 23.0055C103.128 20.495 98.7022 16.3642 95.8849 14.0625Z" stroke="white" stroke-width="5" stroke-linecap="round" stroke-linejoin="round"/>
</svg>
