<svg width="77" height="94" viewBox="0 0 77 94" fill="none" xmlns="http://www.w3.org/2000/svg">
<g opacity="0.1">
<path d="M76.0118 20.3232L73.7087 18.147L57.626 2.94825L57.6226 2.94665L56.3196 1.7138C55.7188 1.14775 54.9218 0.835938 54.074 0.835938H4.96282C2.95418 0.835938 0.794922 2.30064 0.794922 5.51468V63.1978V89.6408V90.3812C0.794922 91.7196 2.21807 93.0228 3.90181 93.4337C3.98811 93.4561 4.07103 93.4865 4.15903 93.5025C4.42301 93.5521 4.69207 93.5792 4.96282 93.5792H72.7763C73.047 93.5792 73.3161 93.5521 73.5801 93.5025C73.6681 93.4865 73.751 93.4561 73.8373 93.4337C75.521 93.0228 76.9442 91.7196 76.9442 90.3812V89.6408V63.1978V23.1871C76.9442 21.9606 76.7868 21.054 76.0118 20.3232ZM56.6377 6.53645L70.9115 20.0242H56.6377V6.53645ZM4.96282 90.3812C4.84268 90.3812 4.73438 90.3412 4.62777 90.3028C4.36548 90.1845 4.17933 89.9351 4.17933 89.6408V66.3959H73.5598V89.6408C73.5598 89.9351 73.3736 90.1845 73.1113 90.3028C73.0047 90.3412 72.8964 90.3812 72.7763 90.3812H4.96282ZM4.17933 63.1978V5.51468C4.17933 5.16769 4.23518 4.03398 4.96282 4.03398H53.3514C53.2956 4.23546 53.2533 4.44333 53.2533 4.6592V22.8705C52.353 22.1029 51.1736 21.6232 49.8689 21.6232C48.9331 21.6232 48.1767 22.3396 48.1767 23.2223C48.1767 24.1049 48.9331 24.8213 49.8689 24.8213C50.803 24.8213 51.5611 25.5392 51.5611 26.4203V32.8164C51.5611 34.7352 52.4783 36.4398 53.8997 37.6135C52.4783 38.7871 51.5611 40.4917 51.5611 42.4105V48.8066C51.5611 49.6877 50.803 50.4056 49.8689 50.4056C48.9331 50.4056 48.1767 51.122 48.1767 52.0047C48.1767 52.8873 48.9331 53.6037 49.8689 53.6037C52.6678 53.6037 54.9455 51.4514 54.9455 48.8066V42.4105C54.9455 40.6468 56.4634 39.2125 58.3299 39.2125C59.2657 39.2125 60.0221 38.4961 60.0221 37.6135C60.0221 36.7308 59.2657 36.0144 58.3299 36.0144C56.4634 36.0144 54.9455 34.5801 54.9455 32.8164V26.4203C54.9455 25.1874 54.4361 24.0729 53.6256 23.2223H72.8981C73.1266 23.2223 73.3465 23.1823 73.5598 23.1295C73.5598 23.1535 73.5615 23.1631 73.5615 23.1871V63.1978H4.17933Z" fill="white"/>
<path d="M17.469 83.0706C17.4368 83.7838 17.1796 84.2923 16.6939 84.5897C16.2083 84.8871 15.5568 85.0374 14.7394 85.0374C14.4162 85.0374 14.0693 85.0023 13.6987 84.9287C13.3281 84.8552 12.9728 84.772 12.6343 84.6777C12.2959 84.5833 11.9828 84.481 11.6968 84.3723C11.4109 84.2635 11.1909 84.1564 11.0369 84.0556L9.85742 85.8258C10.1671 86.0448 10.5428 86.2415 10.9912 86.4158C11.4396 86.5901 11.905 86.7468 12.3907 86.8859C12.8763 87.025 13.3468 87.1258 13.802 87.1913C14.2572 87.2569 14.6548 87.2905 14.9933 87.2905C15.6718 87.2905 16.3318 87.2281 16.9715 87.105C17.6111 86.9819 18.178 86.7628 18.6721 86.4494C19.1662 86.136 19.5588 85.7202 19.8516 85.2037C20.1443 84.6873 20.2916 84.0477 20.2916 83.2913V70.7422H17.469V83.0706Z" fill="white"/>
<path d="M32.2428 79.2875C31.7114 78.9229 31.1361 78.6127 30.5184 78.3585C29.9008 78.1042 29.3305 77.842 28.8059 77.5718C28.2813 77.3015 27.8431 76.9897 27.4877 76.6315C27.1323 76.2733 26.9563 75.8032 26.9563 75.2212C26.9563 74.9877 27.0173 74.7431 27.1408 74.4888C27.2643 74.2346 27.4335 74.0043 27.6501 73.7997C27.8667 73.595 28.1121 73.4255 28.3913 73.2864C28.6705 73.1473 28.9616 73.0641 29.2713 73.0353C29.8263 72.9922 30.2815 72.9842 30.6369 73.0129C30.9923 73.0417 31.2765 73.0929 31.4931 73.1664C31.7097 73.24 31.8756 73.312 31.9907 73.3855C32.1057 73.4591 32.2106 73.5166 32.3037 73.5598C32.3189 73.5454 32.3646 73.4719 32.4425 73.3407C32.5203 73.2096 32.6134 73.0449 32.72 72.8482C32.8266 72.6516 32.9434 72.4405 33.0669 72.215C33.1904 71.9896 33.2987 71.7817 33.3901 71.5914C32.9417 71.3148 32.3579 71.1133 31.6319 70.9902C30.906 70.8671 30.1885 70.8047 29.4811 70.8047C28.7873 70.8047 28.1273 70.9054 27.5029 71.1101C26.8785 71.3148 26.3319 71.6106 25.8598 71.996C25.3877 72.3813 25.0154 72.8514 24.7379 73.4063C24.4603 73.9612 24.3182 74.596 24.3182 75.3091C24.3182 76.0959 24.4942 76.7515 24.8495 77.2759C25.2049 77.8004 25.6517 78.2561 26.1915 78.6415C26.7313 79.0269 27.31 79.3627 27.926 79.6473C28.5419 79.9319 29.1173 80.2149 29.6503 80.4996C30.1834 80.7842 30.625 81.1008 30.9804 81.451C31.3358 81.8012 31.5118 82.2233 31.5118 82.719C31.5118 83.5361 31.2613 84.1517 30.7604 84.5659C30.2595 84.98 29.537 85.1895 28.5978 85.1895C28.2881 85.1895 27.9581 85.1591 27.6028 85.1015C27.2474 85.044 26.8937 84.9672 26.5384 84.8713C26.183 84.7753 25.8412 84.6746 25.5095 84.5659C25.1778 84.4571 24.9054 84.3436 24.6888 84.2269L24.2031 86.1073C24.4654 86.3264 24.7785 86.5119 25.1406 86.6654C25.5027 86.8189 25.8835 86.9388 26.2862 87.0268C26.6873 87.1147 27.085 87.1771 27.4775 87.2123C27.8701 87.2474 28.2526 87.2666 28.6232 87.2666C29.4879 87.2666 30.2578 87.1435 30.9364 86.8956C31.615 86.6478 32.1853 86.3168 32.6489 85.9011C33.1126 85.4853 33.4696 85.004 33.7252 84.4587C33.9807 83.9135 34.1076 83.3474 34.1076 82.7638C34.1076 81.9035 33.9316 81.1999 33.5763 80.6547C33.2209 80.1094 32.7741 79.6521 32.2428 79.2875Z" fill="white"/>
<path d="M48.8072 72.9042C48.1675 72.2182 47.4196 71.6985 46.5633 71.3404C45.7071 70.9822 44.7696 70.8047 43.7526 70.8047C42.7356 70.8047 41.7981 70.9822 40.9418 71.3404C40.0856 71.6985 39.3376 72.2182 38.698 72.9042C38.0583 73.5902 37.5557 74.4457 37.1936 75.4722C36.8315 76.4988 36.6504 77.6917 36.6504 79.046C36.6504 80.4004 36.8315 81.5965 37.1936 82.6311C37.5557 83.6656 38.0583 84.5259 38.698 85.2103C39.3376 85.8947 40.0856 86.4127 40.9418 86.7629C41.7981 87.1131 42.7356 87.2874 43.7526 87.2874C44.7696 87.2874 45.7071 87.1131 46.5633 86.7629C47.4196 86.4127 48.1675 85.8963 48.8072 85.2103C49.4469 84.5243 49.9494 83.6656 50.3116 82.6311C50.6737 81.5965 50.8548 80.4004 50.8548 79.046C50.8548 77.6917 50.6737 76.4988 50.3116 75.4722C49.9494 74.4457 49.4469 73.5902 48.8072 72.9042ZM47.6616 81.9003C47.4297 82.679 47.1099 83.3106 46.7021 83.792C46.2943 84.2733 45.8306 84.6202 45.3145 84.8297C44.7984 85.0392 44.2535 85.1463 43.6832 85.1463C43.1282 85.1463 42.5985 85.0344 42.0976 84.8073C41.5967 84.5803 41.1483 84.2253 40.7557 83.736C40.3631 83.2467 40.0534 82.6183 39.83 81.8443C39.6067 81.0704 39.4865 80.1398 39.4713 79.046C39.4865 77.9235 39.6101 76.9769 39.8419 76.2046C40.0737 75.4323 40.3936 74.8022 40.8014 74.3129C41.2092 73.8236 41.6729 73.4799 42.189 73.2752C42.7051 73.0705 43.25 72.9698 43.8203 72.9698C44.3753 72.9698 44.905 73.0785 45.4059 73.2976C45.9068 73.5166 46.3552 73.8732 46.7478 74.3689C47.1404 74.8646 47.45 75.4946 47.6734 76.2606C47.8968 77.0265 48.0169 77.9555 48.0322 79.0477C48.0169 80.1702 47.8934 81.1216 47.6616 81.9003Z" fill="white"/>
<path d="M64.2722 82.1755L57.5863 71.0703H54.7637V87.1821H57.5863V76.0769L64.2722 87.1821H67.0948V71.0703H64.2722V82.1755Z" fill="white"/>
<path d="M24.4845 32.8182V26.4221C24.4845 25.541 25.2426 24.823 26.1767 24.823C27.1125 24.823 27.8689 24.1067 27.8689 23.224C27.8689 22.3414 27.1125 21.625 26.1767 21.625C23.3778 21.625 21.1001 23.7773 21.1001 26.4221V32.8182C21.1001 34.5819 19.5821 36.0162 17.7156 36.0162C16.7799 36.0162 16.0234 36.7326 16.0234 37.6152C16.0234 38.4979 16.7799 39.2142 17.7156 39.2142C19.5821 39.2142 21.1001 40.6486 21.1001 42.4123V48.8084C21.1001 51.4532 23.3778 53.6054 26.1767 53.6054C27.1125 53.6054 27.8689 52.8891 27.8689 52.0064C27.8689 51.1238 27.1125 50.4074 26.1767 50.4074C25.2426 50.4074 24.4845 49.6894 24.4845 48.8084V42.4123C24.4845 40.4935 23.5673 38.7889 22.1458 37.6152C23.5673 36.4415 24.4845 34.737 24.4845 32.8182Z" fill="white"/>
<path d="M38.0227 34.4143C39.4246 34.4143 40.561 33.3404 40.561 32.0157C40.561 30.691 39.4246 29.6172 38.0227 29.6172C36.6208 29.6172 35.4844 30.691 35.4844 32.0157C35.4844 33.3404 36.6208 34.4143 38.0227 34.4143Z" fill="white"/>
<path d="M38.0242 40.8125C37.0884 40.8125 36.332 41.5289 36.332 42.4115V47.2086C36.332 48.0912 37.0884 48.8076 38.0242 48.8076C38.96 48.8076 39.7164 48.0912 39.7164 47.2086V42.4115C39.7164 41.5289 38.96 40.8125 38.0242 40.8125Z" fill="white"/>
</g>
</svg>
