<svg version="1.1" id="Layer_1"
	xmlns="http://www.w3.org/2000/svg"
	xmlns:xlink="http://www.w3.org/1999/xlink" x="0px" y="0px" width="100%" viewBox="0 0 512 512" enable-background="new 0 0 512 512" xml:space="preserve">
	<path fill="#fff" opacity="1.000000" stroke="none" d="
M440.000000,513.000000 
	C318.311890,513.000000 196.623810,513.000000 74.361206,512.639771 
	C64.559074,509.683868 57.815937,503.042450 57.833218,492.112061 
	C58.078167,337.217957 58.013832,182.323349 57.973289,27.428858 
	C57.970104,15.265683 62.303032,5.957079 74.000000,1.000000 
	C163.021439,1.000000 252.042862,1.000000 341.625610,1.348149 
	C345.142975,3.645721 348.528595,5.163025 350.990173,7.609907 
	C383.608673,40.033493 416.110992,72.574051 448.602142,105.125519 
	C452.926758,109.458168 456.021118,114.420891 456.019745,120.909180 
	C455.993103,245.722153 456.014618,370.535126 455.897339,495.348022 
	C455.894958,497.899719 454.591217,500.555237 453.492096,502.979889 
	C450.875824,508.751221 444.846985,510.119446 440.000000,513.000000 
M366.978119,199.901535 
	C369.117279,207.612961 366.369415,211.534317 358.493073,213.066147 
	C347.313721,215.240341 341.474335,220.552567 341.074768,233.635300 
	C340.718811,245.290588 341.031738,256.965515 340.962433,268.631287 
	C340.953094,270.204163 340.549042,271.804688 340.135101,273.340454 
	C336.846710,285.540741 327.903870,291.009766 316.258209,292.941132 
	C311.229645,293.775116 305.727173,289.384583 305.007721,284.516754 
	C304.352203,280.081848 308.674255,274.864807 313.719055,274.001587 
	C320.467743,272.846802 322.964508,270.011108 322.988403,263.233551 
	C323.030060,251.400864 322.963043,239.567703 323.040649,227.735382 
	C323.052002,226.000977 323.275970,224.122147 323.970245,222.563431 
	C326.870880,216.051224 329.988434,209.635635 333.192719,202.831619 
	C326.426208,195.915558 322.583832,186.895432 322.930969,175.984161 
	C323.254089,165.828217 323.237183,155.646591 322.923828,145.490036 
	C322.679443,137.569260 320.212494,134.596237 313.449707,133.900467 
	C307.694611,133.308395 303.831635,127.815491 305.026062,122.888168 
	C306.393799,117.246071 311.519958,114.295715 317.603271,115.914719 
	C322.316040,117.168953 326.941986,118.749199 331.715271,120.217987 
	C331.715271,86.963776 331.715271,53.124226 331.715271,19.000000 
	C329.691101,19.000000 327.888062,19.000000 326.085052,19.000000 
	C245.588547,19.000000 165.091934,19.051859 84.595734,18.897024 
	C78.460266,18.885223 76.980110,20.178017 76.981697,26.607189 
	C77.007530,131.269318 76.999062,235.931442 77.009834,340.593567 
	C77.009979,342.021515 77.157974,343.449432 77.225998,344.679138 
	C197.379150,344.679138 317.114136,344.679138 436.678070,344.679138 
	C436.678070,271.288025 436.678070,198.218109 436.678070,125.119888 
	C402.751251,125.119888 369.146515,125.119888 334.952972,125.119888 
	C340.186554,130.577667 341.144653,136.947769 341.041077,143.752930 
	C340.883881,154.083420 340.893738,164.419510 341.032501,174.750519 
	C341.150604,183.545593 345.705109,192.539749 356.132355,194.157852 
	C359.932648,194.747604 364.410126,194.923218 366.978119,199.901535 
M99.500328,495.000000 
	C209.807632,495.000000 320.114929,495.000885 430.422241,494.997711 
	C436.530823,494.997528 436.996490,494.537018 436.997253,488.477234 
	C437.002533,448.153442 437.002380,407.829620 436.990417,367.505829 
	C436.989990,366.069763 436.847900,364.633728 436.775208,363.260925 
	C316.708221,363.260925 196.989700,363.260925 77.000443,363.260925 
	C77.000443,405.815277 77.005440,448.109253 76.991074,490.403229 
	C76.989914,493.829926 78.785522,495.063477 82.004829,495.020294 
	C87.502541,494.946472 93.001953,494.999969 99.500328,495.000000 
M414.501068,98.000717 
	C393.237640,76.730530 371.974243,55.460354 350.350098,33.829334 
	C350.350098,58.274117 350.350098,82.091644 350.350098,105.614235 
	C374.367645,105.614235 398.034149,105.614235 422.273895,105.614235 
	C419.523987,102.924950 417.262665,100.713478 414.501068,98.000717 
z"/>
	<path fill="#fff" opacity="1.000000" stroke="none" d="
M182.000000,177.908478 
	C182.694809,188.772705 177.713211,196.714767 171.780624,202.906372 
	C175.111282,209.534180 178.250565,215.588577 181.173981,221.745468 
	C181.834717,223.136993 181.957428,224.883957 181.965988,226.469238 
	C182.028961,238.124786 181.991257,249.780838 182.002945,261.436707 
	C182.011292,269.768707 183.972946,272.204498 192.075760,274.026489 
	C197.746597,275.301605 200.977966,280.029877 199.990570,285.607758 
	C199.171814,290.232880 193.486618,293.993530 188.364777,292.951080 
	C176.707840,290.578583 167.741211,284.981628 164.911804,272.450867 
	C164.561020,270.897400 164.050552,269.324982 164.040192,267.758514 
	C163.965256,256.436188 163.921539,245.112396 164.021164,233.790421 
	C164.129654,221.464417 158.178909,214.897079 145.901154,213.009750 
	C140.441101,212.170456 136.879623,208.543121 137.041122,203.851685 
	C137.208603,198.986603 140.909790,195.508377 146.197006,194.981110 
	C157.235809,193.880295 163.724686,187.160156 163.950836,175.930069 
	C164.175415,164.778244 164.084396,153.617599 163.979736,142.462234 
	C163.832031,126.721329 175.145996,116.781601 189.642517,115.047340 
	C194.211258,114.500763 199.465897,118.662819 199.997711,122.779953 
	C200.738052,128.511368 197.498215,132.880768 191.688156,133.986618 
	C184.514847,135.351959 182.073685,138.140335 182.020081,145.452682 
	C181.941956,156.108887 182.000015,166.766098 182.000000,177.908478 
z"/>
	<path fill="#fff" opacity="1.000000" stroke="none" d="
M250.701447,221.715332 
	C258.907257,221.480042 261.551788,224.623245 261.893921,231.108658 
	C262.331055,239.395462 262.089050,247.724091 261.970093,256.032257 
	C261.884125,262.037903 258.225464,265.987183 253.081116,265.999969 
	C246.908463,266.015350 243.137711,262.435181 243.032745,256.078857 
	C242.898300,247.937424 242.695038,239.776031 243.121643,231.654785 
	C243.355164,227.209244 244.307816,222.434525 250.701447,221.715332 
z"/>
	<path fill="#fff" opacity="1.000000" stroke="none" d="
M251.279205,186.999359 
	C237.230164,183.378647 236.731155,170.931274 242.033386,164.450058 
	C245.765503,159.888138 252.236679,157.808365 258.411652,160.865662 
	C264.488861,163.874557 267.144592,169.155426 265.992828,176.467712 
	C265.228912,181.317688 259.431183,186.289719 253.689529,186.988602 
	C253.035309,187.068237 252.363052,186.999741 251.279205,186.999359 
z"/>
	<path fill="#fff" opacity="1.000000" stroke="none" d="
M405.000000,405.001465 
	C405.000000,429.473358 405.000000,453.445496 405.000000,477.998657 
	C400.208801,477.998657 395.601654,478.150238 391.018158,477.888062 
	C389.924377,477.825470 388.558258,476.596008 387.914764,475.539459 
	C383.399170,468.124969 378.945007,460.669250 374.653351,453.123108 
	C368.300354,441.952332 362.098145,430.695770 355.228302,418.395264 
	C355.228302,438.834808 355.228302,458.220612 355.228302,477.799072 
	C349.538574,477.799072 344.467834,477.799072 339.198486,477.799072 
	C339.198486,447.871521 339.198486,418.138733 339.198486,388.000519 
	C343.828735,388.000519 348.291229,387.854828 352.731995,388.101074 
	C353.868408,388.164062 355.367493,389.213013 355.969238,390.238007 
	C362.725952,401.746857 369.350128,413.333679 375.988220,424.911987 
	C380.118225,432.115601 384.211212,439.340485 388.808350,447.411774 
	C388.808350,427.203949 388.808350,407.889954 388.808350,388.289429 
	C394.279053,388.289429 399.350769,388.289429 405.000000,388.289429 
	C405.000000,393.638794 405.000000,399.070221 405.000000,405.001465 
z"/>
	<path fill="#fff" opacity="1.000000" stroke="none" d="
M249.257431,409.344086 
	C253.106033,397.334015 267.074921,387.547974 279.351105,386.874664 
	C294.190857,386.060760 305.424744,391.865997 313.247284,403.998749 
	C316.032288,408.318268 317.785858,413.635254 318.740967,418.734650 
	C320.893433,430.226501 320.799469,441.827393 316.983734,453.058441 
	C312.179932,467.197815 303.050751,475.984131 287.536591,478.135254 
	C265.181366,481.234924 250.405960,466.100769 246.816910,448.492706 
	C244.099213,435.159607 244.443970,422.396851 249.257431,409.344086 
M303.000214,444.354126 
	C304.869690,433.936218 304.954620,423.566223 300.930511,413.623352 
	C298.190186,406.852509 293.962067,400.948883 285.988159,400.100525 
	C277.932068,399.243378 270.543945,401.250763 266.534851,409.100616 
	C264.324493,413.428467 262.298431,418.183380 261.699341,422.936127 
	C260.164398,435.113220 259.872131,447.203949 267.469269,458.136475 
	C272.404816,465.238861 282.116241,467.730164 289.150177,464.478760 
	C297.547394,460.597198 300.930969,453.473236 303.000214,444.354126 
z"/>
	<path fill="#fff" opacity="1.000000" stroke="none" d="
M221.914734,432.992401 
	C229.602097,438.072449 233.412491,445.610474 232.693680,453.904785 
	C231.700348,465.366669 226.684174,473.005859 214.252014,476.886292 
	C203.623688,480.203674 193.024017,479.316986 182.914948,474.064758 
	C180.257889,472.684326 179.246613,471.564819 180.664871,468.531799 
	C181.725784,466.262970 181.843887,463.553223 182.383682,461.030945 
	C187.711472,462.585236 192.827927,464.575104 198.130508,465.516632 
	C207.826859,467.238220 214.714783,465.292175 217.396255,457.108582 
	C219.199615,451.604858 217.277954,446.849182 211.266983,443.074890 
	C205.157074,439.238434 198.589371,436.106415 192.618317,432.078583 
	C180.249863,423.735474 179.537735,417.449280 181.726105,404.903015 
	C183.521027,394.612457 195.661774,386.286224 206.050934,387.089020 
	C212.952759,387.622345 219.794693,388.968933 226.647095,390.054565 
	C227.507462,390.190887 228.268005,390.957336 229.211212,391.512054 
	C228.405746,393.152435 227.709503,394.588226 226.997971,396.016388 
	C223.847519,402.339783 223.952087,401.648376 216.787628,400.547089 
	C212.050064,399.818909 206.477051,400.376770 202.178314,402.335052 
	C199.076233,403.748199 195.823029,408.288879 195.565277,411.658569 
	C195.198013,416.460022 198.664124,420.586670 203.345032,423.053955 
	C209.455063,426.274536 215.483154,429.650574 221.914734,432.992401 
z"/>
	<path fill="#fff" opacity="1.000000" stroke="none" d="
M161.000000,404.000916 
	C161.000000,420.474213 161.298798,436.456482 160.834900,452.416595 
	C160.676559,457.864136 160.686386,463.557404 157.177109,468.673157 
	C153.237366,474.416382 147.681381,476.668518 141.458939,477.962372 
	C128.261826,480.706543 116.388779,476.730621 104.834747,470.458221 
	C107.050209,466.899139 109.158188,463.512695 110.791100,460.889465 
	C118.116318,462.322052 124.911293,464.197052 131.822754,464.862946 
	C140.277298,465.677521 145.228500,460.810181 145.100967,451.859131 
	C144.790802,430.092010 145.000000,408.317474 145.000000,386.273438 
	C150.305389,386.273438 155.372482,386.273438 161.000000,386.273438 
	C161.000000,391.983734 161.000000,397.742493 161.000000,404.000916 
z"/>
</svg>
