<svg width="95" height="107" viewBox="0 0 95 107" fill="none" xmlns="http://www.w3.org/2000/svg">
<g opacity="0.1">
<path d="M92.8452 107V21.1657H92.8431H59.2715" stroke="white" stroke-width="4" stroke-miterlimit="10" stroke-linecap="round" stroke-linejoin="round"/>
<path d="M38.8409 21.1657L12.393 21.1636C11.4482 21.1636 10.5145 21.1006 9.59515 20.8629C8.20006 20.502 6.89674 19.8267 5.79723 18.8954C4.47278 17.7735 3.47079 16.3001 2.91079 14.6574C2.58662 13.6932 2.4082 12.6601 2.4082 11.584V11.8288V107" stroke="white" stroke-width="4" stroke-miterlimit="10" stroke-linecap="round" stroke-linejoin="round"/>
<path d="M92.8437 21.166H59.2719C57.2079 11.8334 50.1821 11.8334 50.1821 11.8334H29.7513C29.7513 11.8334 36.7771 11.8334 38.841 21.166H11.9903C7.92238 21.166 4.22283 18.5067 2.91119 14.6577C2.60835 13.7665 2.43421 12.817 2.4086 11.8291C2.40625 11.7474 2.40625 11.6637 2.40625 11.582C2.40625 8.938 3.48037 6.54093 5.21372 4.80757C6.94707 3.07208 9.34415 2.00032 11.9903 2.00032H92.8437C92.8437 2.00032 88.6659 5.64309 88.6659 11.582C88.6659 17.5232 92.8437 21.166 92.8437 21.166Z" stroke="white" stroke-width="4" stroke-miterlimit="10" stroke-linecap="round" stroke-linejoin="round"/>
<path d="M59.8377 26.8661V68.4785L49.9314 57.3267L39.4068 68.4785V26.8661C39.4068 11.8329 29.752 11.8329 29.752 11.8329H50.1828C50.1828 11.8329 59.8377 11.8329 59.8377 26.8661Z" stroke="white" stroke-width="4" stroke-miterlimit="10" stroke-linecap="round" stroke-linejoin="round"/>
<path d="M17.0762 11.834H62.7936" stroke="white" stroke-width="4" stroke-miterlimit="10" stroke-linecap="round" stroke-linejoin="round"/>
<path d="M29.752 83.623H69.1611" stroke="white" stroke-width="4" stroke-miterlimit="10" stroke-linecap="round" stroke-linejoin="round"/>
<path d="M29.752 95.9355H69.1611" stroke="white" stroke-width="4" stroke-miterlimit="10" stroke-linecap="round" stroke-linejoin="round"/>
</g>
</svg>
